<svg width="56" height="56" viewBox="0 0 56 56" fill="none" xmlns="http://www.w3.org/2000/svg">
<path d="M41.2534 16.287C41.8155 15.6439 42.173 14.8477 42.2801 14.0003C42.28 13.1905 42.0691 12.3946 41.6681 11.6909C41.2672 10.9872 40.6901 10.4 39.9934 9.98699C38.422 9.4379 36.7344 9.30836 35.0975 9.61118C33.4607 9.91401 31.9311 10.6387 30.6601 11.7137C29.6304 12.7471 28.7365 13.9076 28.0001 15.167C27.2853 13.8603 26.4242 12.6391 25.4334 11.527C24.1624 10.452 22.6329 9.72734 20.996 9.42452C19.3591 9.1217 17.6716 9.25123 16.1001 9.80032C15.369 10.2331 14.7617 10.8468 14.3366 11.5825C13.9116 12.3181 13.6832 13.1508 13.6734 14.0003C13.7432 14.9131 14.1029 15.7798 14.7001 16.4737H10.0334V52.0803H45.9668V16.287H41.2534ZM31.5468 12.4603C32.6141 11.6251 33.864 11.0544 35.1942 10.7948C36.5243 10.5353 37.8971 10.5943 39.2001 10.967C39.6922 11.2557 40.1039 11.6634 40.3974 12.1526C40.691 12.6418 40.8569 13.1969 40.8801 13.767C40.8083 14.2924 40.6148 14.7939 40.3151 15.2314C40.0153 15.6689 39.6175 16.0303 39.1534 16.287H28.9801C29.6692 14.9073 30.5318 13.6214 31.5468 12.4603ZM15.0734 14.0003C15.1087 13.4332 15.2797 12.8828 15.572 12.3955C15.8644 11.9082 16.2696 11.4983 16.7534 11.2003C18.0565 10.8276 19.4292 10.7686 20.7594 11.0281C22.0896 11.2877 23.3395 11.8584 24.4068 12.6937C25.4218 13.8547 26.2843 15.1407 26.9734 16.5203H16.8468C16.3785 16.2634 15.9752 15.9028 15.6679 15.466C15.3605 15.0292 15.1572 14.5278 15.0734 14.0003ZM26.1334 50.027H12.1334V30.6137H26.1334V50.027ZM26.1334 28.747H12.1334V18.1537H26.1334V28.747ZM44.1001 50.027H30.1001V30.6137H44.1001V50.027ZM44.1001 28.747H30.1001V18.1537H44.1001V28.747Z" fill="black"/>
</svg>
