<svg width="14" height="17" viewBox="0 0 14 17" fill="none" xmlns="http://www.w3.org/2000/svg">
<path fill-rule="evenodd" clip-rule="evenodd" d="M4.50741 2.80875C4.55309 2.23223 4.80689 1.81492 5.18366 1.52489C5.61637 1.19181 6.24925 1 6.99999 1C7.75073 1 8.38362 1.19181 8.81633 1.52489C9.18086 1.80549 9.43028 2.20523 9.48748 2.75302C9.46952 2.75749 9.45159 2.76211 9.4337 2.76688C8.51664 3.01143 7.68724 3.65582 6.99819 4.30448C6.29595 3.65627 5.44688 3.04039 4.51951 2.8117C4.51548 2.81071 4.51144 2.80973 4.50741 2.80875ZM3.51061 2.72925C3.57846 1.87689 3.96796 1.19873 4.57369 0.732468C5.22676 0.229763 6.09388 0 6.99999 0C7.90611 0 8.77323 0.229763 9.4263 0.732467C10.0197 1.18923 10.4056 1.84933 10.4848 2.67733C10.716 2.70122 10.9502 2.75547 11.1858 2.84525C11.7826 3.07258 12.3509 3.51313 12.8905 4.18765C14.0118 5.58929 14.1358 7.25868 13.8001 8.7358C13.4665 10.2038 12.6695 11.5376 11.8536 12.3535C10.3319 13.8752 8.28872 15.4147 7.22364 15.9472L7.00003 16.059L6.77642 15.9472C5.71134 15.4147 3.66815 13.8752 2.14648 12.3535C1.33058 11.5376 0.533611 10.2038 0.199978 8.7358C-0.135739 7.25868 -0.0117224 5.58929 1.1096 4.18764C1.62704 3.54085 2.1843 3.11716 2.77522 2.89702C3.02157 2.80524 3.26741 2.75123 3.51061 2.72925ZM7.35358 5.35355C8.10308 4.60405 8.89541 3.94536 9.69136 3.73311C10.0722 3.63156 10.448 3.63427 10.8298 3.77974C11.2175 3.92741 11.6492 4.23685 12.1096 4.81234C12.9883 5.9107 13.1143 7.24131 12.825 8.51418C12.5336 9.79623 11.8306 10.9624 11.1465 11.6464C9.7775 13.0154 7.99818 14.3692 7.00003 14.9332C6.00188 14.3692 4.22255 13.0154 2.85359 11.6464C2.16953 10.9624 1.46649 9.79623 1.17511 8.51418C0.885813 7.2413 1.01178 5.9107 1.89047 4.81234C2.32273 4.27203 2.74031 3.97716 3.12433 3.8341C3.50492 3.69231 3.88854 3.68607 4.28009 3.78262C5.0903 3.98241 5.90882 4.6159 6.64648 5.35355L7.00003 5.7071L7.35358 5.35355Z" fill="black"/>
</svg>
