<svg width="16" height="16" viewBox="0 0 16 16" fill="none" xmlns="http://www.w3.org/2000/svg">
<path fill-rule="evenodd" clip-rule="evenodd" d="M7.97021 6.67597C7.96929 6.67554 7.96835 6.67511 7.96741 6.6747C7.96646 6.67428 7.96549 6.67389 7.96449 6.67355C7.96646 6.67422 7.96834 6.6751 7.97021 6.67597Z" fill="black"/>
<path d="M6.30254 8.51492H5.34698V6.76515C5.34698 6.71077 5.30325 6.66667 5.24943 6.66667H4.89765C4.84373 6.66667 4.8 6.71077 4.8 6.76515V8.96808C4.8 8.99455 4.81048 9.01868 4.8273 9.03633C4.8273 9.03633 4.82806 9.0373 4.82864 9.03778L4.83008 9.03914C4.84767 9.0562 4.87132 9.06667 4.89756 9.06667H6.30254C6.35646 9.06667 6.4 9.02246 6.4 8.96808V8.6134C6.4 8.55902 6.35646 8.51492 6.30254 8.51492Z" fill="black"/>
<path d="M7.1048 6.66667H6.76196C6.70939 6.66667 6.66667 6.71077 6.66667 6.76496V8.96837C6.66667 9.02266 6.70939 9.06667 6.76196 9.06667H7.1048C7.15737 9.06667 7.2 9.02266 7.2 8.96837V6.76496C7.2 6.71077 7.15737 6.66667 7.1048 6.66667Z" fill="black"/>
<path d="M9.49978 6.66667H9.13887C9.08353 6.66667 9.03865 6.71077 9.03865 6.76496V8.07402L8.01124 6.71039C8.00888 6.7069 8.00621 6.7036 8.00345 6.7004L8.00276 6.69982C8.00079 6.69759 7.99882 6.69565 7.99675 6.69371C7.99623 6.69321 7.99572 6.69277 7.99513 6.69229L7.99487 6.69206C7.99319 6.69051 7.99142 6.68906 7.98954 6.6877C7.98876 6.68693 7.98787 6.68635 7.98698 6.68567C7.9852 6.6845 7.98353 6.68324 7.98175 6.68218C7.98077 6.6815 7.97978 6.68092 7.97869 6.68043C7.97692 6.67937 7.97514 6.6783 7.97337 6.67743C7.97228 6.67694 7.9713 6.67636 7.97021 6.67597L7.96741 6.6747C7.96646 6.67428 7.96549 6.67389 7.96449 6.67355L7.96124 6.67239C7.95926 6.67171 7.95729 6.67103 7.95522 6.67054C7.95413 6.67016 7.95295 6.66996 7.95177 6.66957C7.94979 6.66919 7.94792 6.6687 7.94604 6.66831C7.94466 6.66812 7.94318 6.66793 7.9418 6.66783C7.94003 6.66744 7.93825 6.66735 7.93648 6.66715C7.9348 6.66696 7.93312 6.66696 7.93135 6.66686C7.93007 6.66686 7.92908 6.66667 7.9278 6.66667H7.56698C7.51165 6.66667 7.46667 6.71077 7.46667 6.76496V8.96837C7.46667 9.02266 7.51165 9.06667 7.56698 9.06667H7.9278C7.98323 9.06667 8.02811 9.02266 8.02811 8.96837V7.6597L9.0568 9.02508C9.0639 9.03497 9.07268 9.04301 9.08225 9.04941L9.08324 9.05019C9.08531 9.05145 9.08738 9.05271 9.08945 9.05387C9.09044 9.05445 9.09133 9.05484 9.09231 9.05532C9.09379 9.0562 9.09547 9.05697 9.09705 9.05765C9.09872 9.05833 9.1002 9.05901 9.10198 9.05969C9.10297 9.06008 9.10395 9.06046 9.10494 9.06075C9.10731 9.06163 9.10948 9.0623 9.11174 9.06298L9.11322 9.06327C9.12141 9.06541 9.12999 9.06667 9.13887 9.06667H9.49978C9.55522 9.06667 9.6 9.02266 9.6 8.96837V6.76496C9.6 6.71077 9.55522 6.66667 9.49978 6.66667Z" fill="black"/>
<path d="M11.3692 7.21842C11.4231 7.21842 11.4667 7.17441 11.4667 7.11993V6.76525C11.4667 6.71087 11.4231 6.66667 11.3692 6.66667H9.96432C9.93798 6.66667 9.91405 6.67733 9.89646 6.69449L9.89531 6.69555C9.89473 6.69613 9.89425 6.69672 9.89377 6.6973C9.87705 6.71494 9.86667 6.73879 9.86667 6.76515V8.96818C9.86667 8.99465 9.87714 9.01868 9.89396 9.03633L9.89531 9.03778L9.89675 9.03914C9.91424 9.0561 9.93798 9.06667 9.96413 9.06667H11.3692C11.4231 9.06667 11.4667 9.02246 11.4667 8.96818V8.6134C11.4667 8.55912 11.4231 8.51492 11.3692 8.51492H10.4137V8.14249H11.3692C11.4231 8.14249 11.4667 8.09839 11.4667 8.04401V7.68933C11.4667 7.63495 11.4231 7.59074 11.3692 7.59074H10.4137V7.21842H11.3692Z" fill="black"/>
<path fill-rule="evenodd" clip-rule="evenodd" d="M0 1.66667C0 0.746192 0.746192 0 1.66667 0H8H14.3333C15.2538 0 16 0.746192 16 1.66667V8V14.3333C16 15.2538 15.2538 16 14.3333 16H8H1.66667C0.746192 16 0 15.2538 0 14.3333V8V1.66667ZM8.13329 3.73333C10.8537 3.73333 13.0667 5.51632 13.0667 7.70792C13.0667 8.58504 12.7244 9.37494 12.0094 10.1533C10.9744 11.336 8.65987 12.7766 8.13329 12.9969C7.62158 13.211 7.68068 12.8764 7.70409 12.7438L7.70601 12.7329C7.71849 12.6592 7.77637 12.3136 7.77637 12.3136C7.79301 12.1886 7.81023 11.9946 7.76048 11.8707C7.70516 11.7344 7.4865 11.6636 7.32582 11.6293C4.95508 11.3181 3.2 9.67267 3.2 7.70792C3.2 5.51632 5.41328 3.73333 8.13329 3.73333Z" fill="black"/>
</svg>
