<svg width="14" height="16" viewBox="0 0 14 16" fill="none" xmlns="http://www.w3.org/2000/svg">
<path fill-rule="evenodd" clip-rule="evenodd" d="M10 4C10 5.65686 8.65686 7 7 7C5.34314 7 4 5.65686 4 4C4 2.34314 5.34314 1 7 1C8.65686 1 10 2.34314 10 4ZM11 4C11 6.20914 9.20914 8 7 8C4.79086 8 3 6.20914 3 4C3 1.79086 4.79086 0 7 0C9.20914 0 11 1.79086 11 4ZM1 16C1 14.1834 1.6167 12.6909 2.65381 11.6538C3.69089 10.6167 5.18338 10 7 10C8.81662 10 10.3091 10.6167 11.3462 11.6538C12.3833 12.6909 13 14.1834 13 16H14C14 13.9506 13.2997 12.1931 12.0533 10.9467C10.8069 9.70029 9.04938 9 7 9C4.95062 9 3.19312 9.70029 1.94669 10.9467C0.700287 12.1931 0 13.9506 0 16H1Z" fill="black"/>
</svg>
