<svg width="16" height="16" viewBox="0 0 16 16" fill="none" xmlns="http://www.w3.org/2000/svg">
<path d="M8 0C3.58125 0 0 3.58125 0 8C0 11.3906 2.10938 14.2844 5.08437 15.45C5.01562 14.8156 4.95 13.8469 5.1125 13.1562C5.25938 12.5312 6.05 9.18125 6.05 9.18125C6.05 9.18125 5.80937 8.70313 5.80937 7.99375C5.80937 6.88125 6.45312 6.05 7.25625 6.05C7.9375 6.05 8.26875 6.5625 8.26875 7.17812C8.26875 7.86562 7.83125 8.89062 7.60625 9.84062C7.41875 10.6375 8.00625 11.2875 8.79062 11.2875C10.2125 11.2875 11.3062 9.7875 11.3062 7.625C11.3062 5.70938 9.93125 4.36875 7.96562 4.36875C5.69062 4.36875 4.35313 6.075 4.35313 7.84062C4.35313 8.52812 4.61875 9.26562 4.95 9.66562C5.01562 9.74375 5.025 9.81563 5.00625 9.89375C4.94688 10.1469 4.80938 10.6906 4.78438 10.8C4.75 10.9469 4.66875 10.9781 4.51562 10.9062C3.51562 10.4406 2.89062 8.98125 2.89062 7.80625C2.89062 5.28125 4.725 2.96563 8.175 2.96563C10.95 2.96563 13.1062 4.94375 13.1062 7.5875C13.1062 10.3438 11.3688 12.5625 8.95625 12.5625C8.14688 12.5625 7.38437 12.1406 7.12187 11.6438C7.12187 11.6438 6.72188 13.1719 6.625 13.5469C6.44375 14.2406 5.95625 15.1125 5.63125 15.6438C6.38125 15.875 7.175 16 8 16C12.4187 16 16 12.4187 16 8C16 3.58125 12.4187 0 8 0Z" fill="black"/>
</svg>
