<svg width="16" height="16" viewBox="0 0 16 16" fill="none" xmlns="http://www.w3.org/2000/svg">
<path fill-rule="evenodd" clip-rule="evenodd" d="M11 6C11 8.76142 8.76142 11 6 11C3.23858 11 1 8.76142 1 6C1 3.23858 3.23858 1 6 1C8.76142 1 11 3.23858 11 6ZM9.89849 10.561C8.84988 11.4582 7.48821 12 6 12C2.68629 12 0 9.31371 0 6C0 2.68629 2.68629 0 6 0C9.31371 0 12 2.68629 12 6C12 7.48821 11.4582 8.84988 10.561 9.89849C10.614 9.92262 10.6636 9.95646 10.7071 10L15.5 14.7929C15.6953 14.9882 15.6953 15.3047 15.5 15.5C15.3047 15.6953 14.9882 15.6953 14.7929 15.5L10 10.7071C9.95646 10.6636 9.92262 10.614 9.89849 10.561Z" fill="black"/>
</svg>
