<svg width="56" height="56" viewBox="0 0 56 56" fill="none" xmlns="http://www.w3.org/2000/svg">
<path d="M48.5801 49.6532L44.5668 43.2599H11.4801L7.51345 49.6532H6.53345V51.3332H49.4668V49.4665L48.5801 49.6532ZM9.66011 49.6532L12.3201 44.9865H43.5401L46.3868 49.6532H9.66011ZM46.0135 37.8465C46.2193 35.0891 45.8712 32.3183 44.9896 29.6975C44.108 27.0767 42.7107 24.6589 40.8801 22.5865C37.7823 19.4774 33.6014 17.6879 29.2134 17.5932V10.4532H35.0468V8.11987H21.0468V10.4532H26.8801V17.5932C22.4922 17.6879 18.3112 19.4774 15.2134 22.5865C11.7629 26.4119 9.95295 31.4396 10.1734 36.5865V38.9199H46.1068L46.0135 37.8465ZM11.9934 36.6332C11.8291 31.9406 13.5036 27.3693 16.6601 23.8932C18.1385 22.4009 19.9083 21.229 21.8592 20.4502C23.8101 19.6714 25.9005 19.3026 28.0001 19.3665C30.1385 19.3145 32.2648 19.7018 34.2474 20.5045C36.2301 21.3072 38.0269 22.5082 39.5268 24.0332C42.6363 27.5561 44.3027 32.1222 44.1935 36.8199L11.9934 36.6332Z" fill="black"/>
</svg>
