<svg width="16" height="16" viewBox="0 0 16 16" fill="none" xmlns="http://www.w3.org/2000/svg">
<path fill-rule="evenodd" clip-rule="evenodd" d="M8.5 0.5H10.5V0H8.5H7.5H5.5V0.5H7.5V3.51589C4.02084 3.73908 1.39918 6.30155 1.04167 10.5C1.01411 10.8237 1 11.1572 1 11.5H2H8H14H15C15 11.1572 14.9859 10.8237 14.9583 10.5C14.6008 6.30155 11.9792 3.73908 8.5 3.51589V0.5ZM13.9544 10.5C13.7849 8.68827 13.1541 7.28116 12.2601 6.29767C11.2129 5.14584 9.73874 4.5 8 4.5C6.26126 4.5 4.78706 5.14584 3.73994 6.29767C2.84586 7.28116 2.21506 8.68827 2.04556 10.5H2.05812H2.07889H2.09955H2.1201H2.14054H2.16087H2.18109H2.2012H2.2212H2.24109H2.26088H2.28056H2.30013H2.3196H2.33896H2.35822H2.37737H2.39642H2.41537H2.43421H2.45295H2.47158H2.49012H2.50855H2.52689H2.54512H2.56326H2.58129H2.59923H2.61707H2.63481H2.65246H2.67H2.68745H2.70481H2.72207H2.73924H2.75631H2.77329H2.79018H2.80697H2.82367H2.84028H2.8568H2.87323H2.88956H2.90581H2.92197H2.93804H2.95402H2.96992H2.98573H3.00145H3.01708H3.03263H3.0481H3.06347H3.07877H3.09398H3.10911H3.12416H3.13912H3.154H3.1688H3.18352H3.19816H3.21272H3.2272H3.2416H3.25593H3.27018H3.28434H3.29844H3.31245H3.32639H3.34026H3.35405H3.36777H3.38141H3.39498H3.40847H3.4219H3.43525H3.44853H3.46174H3.47488H3.48795H3.50095H3.51389H3.52675H3.53955H3.55228H3.56494H3.57754H3.59007H3.60253H3.61493H3.62727H3.63954H3.65175H3.66389H3.67598H3.688H3.69996H3.71186H3.7237H3.73548H3.7472H3.75886H3.77046H3.78201H3.79349H3.80492H3.8163H3.82762H3.83888H3.85009H3.86124H3.87234H3.88339H3.89438H3.90532H3.91621H3.92705H3.93784H3.94858H3.95926H3.9699H3.98049H3.99103H4.00152H4.01196H4.02236H4.03271H4.04302H4.05328H4.06349H4.07366H4.08379H4.09387H4.10391H4.11391H4.12386H4.13378H4.14365H4.15348H4.16328H4.17303H4.18274H4.19242H4.20206H4.21166H4.22122H4.23074H4.24024H4.24969H4.25911H4.26849H4.27785H4.28716H4.29645H4.3057H4.31492H4.32411H4.33327H4.34239H4.35149H4.36056H4.36959H4.3786H4.38758H4.39654H4.40547H4.41436H4.42324H4.43209H4.44091H4.44971H4.45848H4.46723H4.47596H4.48467H4.49335H4.50201H4.51065H4.51927H4.52787H4.53645H4.54501H4.55355H4.56208H4.57058H4.57907H4.58754H4.596H4.60444H4.61286H4.62127H4.62967H4.63805H4.64642H4.65478H4.66312H4.67145H4.67978H4.68809H4.69639H4.70468H4.71296H4.72123H4.7295H4.73775H4.746H4.75424H4.76248H4.77071H4.77894H4.78716H4.79537H4.80359H4.8118H4.82H4.82821H4.83641H4.84461H4.85281H4.86101H4.86921H4.87741H4.88561H4.89382H4.90202H4.91023H4.91844H4.92666H4.93488H4.9431H4.95133H4.95956H4.96781H4.97605H4.98431H4.99257H5.00084H5.00912H5.01741H5.02571H5.03401H5.04233H5.05066H5.059H5.06736H5.07572H5.0841H5.0925H5.1009H5.10932H5.11776H5.12621H5.13468H5.14316H5.15167H5.16018H5.16872H5.17728H5.18585H5.19445H5.20306H5.2117H5.22035H5.22903H5.23773H5.24645H5.2552H5.26396H5.27276H5.28157H5.29042H5.29928H5.30818H5.3171H5.32604H5.33502H5.34402H5.35305H5.36211H5.3712H5.38032H5.38947H5.39865H5.40786H5.41711H5.42638H5.43569H5.44503H5.45441H5.46382H5.47327H5.48275H5.49227H5.50182H5.51141H5.52104H5.5307H5.54041H5.55015H5.55993H5.56976H5.57962H5.58952H5.59947H5.60945H5.61948H5.62956H5.63967H5.64983H5.66003H5.67028H5.68058H5.69092H5.7013H5.71173H5.72222H5.73274H5.74332H5.75394H5.76462H5.77534H5.78612H5.79694H5.80782H5.81875H5.82973H5.84076H5.85185H5.86299H5.87418H5.88543H5.89674H5.9081H5.91951H5.93099H5.94252H5.95411H5.96575H5.97746H5.98922H6.00105H6.01293H6.02488H6.03688H6.04895H6.06108H6.07327H6.08553H6.09785H6.11023H6.12268H6.1352H6.14778H6.16042H6.17313H6.18591H6.19876H6.21168H6.22466H6.23771H6.25084H6.26403H6.27729H6.29063H6.30403H6.31751H6.33106H6.34469H6.35839H6.37216H6.386H6.39993H6.41392H6.428H6.44215H6.45637H6.47068H6.48506H6.49952H6.51406H6.52868H6.54338H6.55816H6.57302H6.58797H6.60299H6.6181H6.63329H6.64857H6.66392H6.67937H6.69489H6.71051H6.72621H6.74199H6.75787H6.77383H6.78987H6.80601H6.82224H6.83855H6.85496H6.87145H6.88804H6.90472H6.92149H6.93835H6.95531H6.97236H6.9895H7.00674H7.02407H7.0415H7.05902H7.07664H7.09436H7.11217H7.13009H7.1481H7.16621H7.18442H7.20273H7.22114H7.23965H7.25826H7.27697H7.29579H7.31471H7.33373H7.35286H7.37209H7.39142H7.41086H7.43041H7.45006H7.46982H7.48969H7.50967H7.52975H7.54994H7.57024H7.59065H7.61118H7.63181H7.65255H7.67341H7.69438H7.71546H7.73665H7.75796H7.77938H7.80092H7.82257H7.84434H7.86622H7.88823H7.91034H7.93258H7.95493H7.97741H8H8.0226H8.04511H8.06752H8.08984H8.11206H8.13418H8.15621H8.17815H8.19999H8.22174H8.24339H8.26496H8.28643H8.30781H8.32909H8.35029H8.37139H8.3924H8.41332H8.43416H8.4549H8.47555H8.49612H8.51659H8.53698H8.55728H8.57749H8.59762H8.61766H8.63761H8.65748H8.67726H8.69695H8.71656H8.73609H8.75553H8.77489H8.79416H8.81335H8.83246H8.85149H8.87043H8.8893H8.90808H8.92678H8.9454H8.96394H8.9824H9.00078H9.01908H9.0373H9.05545H9.07351H9.0915H9.10941H9.12724H9.145H9.16268H9.18029H9.19782H9.21527H9.23265H9.24996H9.26719H9.28435H9.30143H9.31844H9.33538H9.35225H9.36904H9.38577H9.40242H9.419H9.43551H9.45195H9.46832H9.48462H9.50086H9.51702H9.53312H9.54914H9.5651H9.581H9.59682H9.61258H9.62828H9.6439H9.65947H9.67496H9.6904H9.70577H9.72107H9.73631H9.75149H9.76661H9.78166H9.79665H9.81158H9.82645H9.84125H9.856H9.87068H9.88531H9.89988H9.91438H9.92883H9.94322H9.95755H9.97182H9.98604H10.0002H10.0143H10.0283H10.0423H10.0563H10.0702H10.084H10.0977H10.1115H10.1251H10.1387H10.1523H10.1658H10.1792H10.1926H10.206H10.2193H10.2325H10.2457H10.2589H10.272H10.285H10.298H10.3109H10.3238H10.3367H10.3495H10.3623H10.375H10.3876H10.4002H10.4128H10.4253H10.4378H10.4503H10.4626H10.475H10.4873H10.4996H10.5118H10.5239H10.5361H10.5482H10.5602H10.5722H10.5842H10.5961H10.608H10.6199H10.6317H10.6434H10.6552H10.6669H10.6785H10.6901H10.7017H10.7132H10.7247H10.7362H10.7477H10.7591H10.7704H10.7817H10.793H10.8043H10.8155H10.8267H10.8379H10.849H10.8601H10.8712H10.8822H10.8932H10.9042H10.9151H10.926H10.9369H10.9478H10.9586H10.9694H10.9802H10.9909H11.0016H11.0123H11.023H11.0336H11.0442H11.0548H11.0654H11.0759H11.0864H11.0969H11.1073H11.1178H11.1282H11.1386H11.1489H11.1593H11.1696H11.1799H11.1902H11.2005H11.2107H11.2209H11.2311H11.2413H11.2515H11.2616H11.2718H11.2819H11.292H11.3021H11.3121H11.3222H11.3322H11.3422H11.3522H11.3622H11.3722H11.3821H11.3921H11.402H11.4119H11.4218H11.4317H11.4416H11.4514H11.4613H11.4711H11.481H11.4908H11.5006H11.5104H11.5202H11.53H11.5398H11.5496H11.5593H11.5691H11.5789H11.5886H11.5983H11.6081H11.6178H11.6275H11.6372H11.647H11.6567H11.6664H11.6761H11.6858H11.6955H11.7052H11.7149H11.7246H11.7343H11.744H11.7537H11.7634H11.7731H11.7827H11.7924H11.8021H11.8118H11.8215H11.8312H11.841H11.8507H11.8604H11.8701H11.8798H11.8896H11.8993H11.909H11.9188H11.9285H11.9383H11.948H11.9578H11.9676H11.9774H11.9872H11.997H12.0068H12.0166H12.0265H12.0363H12.0462H12.056H12.0659H12.0758H12.0857H12.0956H12.1055H12.1155H12.1254H12.1354H12.1454H12.1554H12.1654H12.1754H12.1855H12.1955H12.2056H12.2157H12.2258H12.2359H12.2461H12.2562H12.2664H12.2766H12.2868H12.2971H12.3073H12.3176H12.3279H12.3382H12.3486H12.359H12.3693H12.3798H12.3902H12.4006H12.4111H12.4216H12.4322H12.4427H12.4533H12.4639H12.4745H12.4852H12.4959H12.5066H12.5173H12.5281H12.5389H12.5497H12.5605H12.5714H12.5823H12.5933H12.6042H12.6152H12.6263H12.6373H12.6484H12.6595H12.6707H12.6819H12.6931H12.7044H12.7157H12.727H12.7383H12.7497H12.7612H12.7726H12.7841H12.7957H12.8072H12.8189H12.8305H12.8422H12.8539H12.8657H12.8775H12.8893H12.9012H12.9131H12.9251H12.9371H12.9491H12.9612H12.9733H12.9855H12.9977H13.01H13.0223H13.0346H13.047H13.0594H13.0719H13.0844H13.097H13.1096H13.1222H13.135H13.1477H13.1605H13.1733H13.1862H13.1992H13.2122H13.2252H13.2383H13.2514H13.2646H13.2778H13.2911H13.3045H13.3179H13.3313H13.3448H13.3584H13.372H13.3856H13.3993H13.4131H13.4269H13.4408H13.4547H13.4687H13.4827H13.4968H13.511H13.5252H13.5394H13.5538H13.5681H13.5826H13.5971H13.6116H13.6263H13.6409H13.6557H13.6705H13.6853H13.7002H13.7152H13.7303H13.7454H13.7605H13.7758H13.7911H13.8064H13.8219H13.8373H13.8529H13.8685H13.8842H13.9H13.9158H13.9317H13.9476H13.9544ZM0.783048 15.5L2 13.5H14L15.1525 15.5H0.783048ZM16 16V15.5L14.5 13H1.5L0 15.5V16H16Z" fill="black"/>
</svg>
