<svg width="2280" height="294" viewBox="0 0 2280 294" fill="none" xmlns="http://www.w3.org/2000/svg">
<path fill-rule="evenodd" clip-rule="evenodd" d="M515.065 66.1854L524.338 120.749H519.189C511.978 86.7683 481.097 72.359 448.154 72.359C443.005 72.359 437.856 72.3589 430.645 74.4211V168.115H443.005C469.762 168.115 486.233 157.804 486.233 136.196H491.382V212.381H487.258C485.195 195.909 479.022 175.326 444.029 175.326H430.645V261.808C430.645 276.218 436.818 284.454 458.439 284.454V289.616H366.808V284.454C387.404 284.454 394.615 276.218 394.615 261.808V93.9796C394.615 80.5948 386.379 71.3214 365.783 71.3214V66.1854H515.065V66.1854ZM700.39 66.1854L709.65 120.749H704.501C697.29 86.7683 666.396 72.359 633.453 72.359C628.317 72.359 623.155 72.3589 615.957 74.4211V168.115H628.317C655.073 168.115 671.558 157.804 671.558 136.196H676.694V212.381H672.583C670.52 195.909 664.347 175.326 629.341 175.326H615.957V261.808C615.957 276.218 622.13 284.454 643.751 284.454V289.616H552.119V284.454C572.702 284.454 579.914 276.218 579.914 261.808V93.9796C579.914 80.5948 571.678 71.3214 551.082 71.3214V66.1854H700.39V66.1854ZM321.517 66.1854V71.3214C306.083 71.3214 296.81 79.5572 296.81 93.9796V261.782C296.81 277.229 307.108 284.428 321.517 284.428V289.59H235.035V284.428C250.482 283.416 259.742 277.229 259.742 261.782V93.9796C259.742 79.5702 250.482 71.3214 235.035 71.3214V66.1854H321.517ZM209.29 5.43495L218.55 72.359H214.439C201.054 37.3536 177.371 13.6708 131.043 13.6708V250.46C131.043 276.192 145.453 284.428 160.9 284.428V289.59H57.9455V284.428C72.3679 284.428 89.8641 276.192 89.8641 250.46V13.6708C42.4985 13.6708 20.8909 35.2914 4.4193 72.359H0.294922L7.50612 5.43495H209.29V5.43495ZM1475.63 216.492C1475.63 251.497 1500.35 277.242 1536.38 277.242C1551.83 277.242 1570.35 270.018 1582.71 254.597L1510.64 161.928C1493.13 168.115 1475.63 186.636 1475.63 216.492ZM1574.47 78.5326C1574.4 49.9213 1562.01 35.2914 1537.42 35.2914C1512.7 35.2914 1498.28 49.7138 1498.28 73.3836C1498.28 100.153 1534.32 137.221 1534.32 137.221C1563.15 120.749 1574.47 104.278 1574.47 78.5326V78.5326ZM1539.47 143.394L1601.26 220.629C1601.26 220.629 1607.42 208.269 1608.45 195.909C1608.45 181.5 1601.26 176.351 1588.9 174.301V170.177H1655.82C1655.82 170.177 1656.83 174.301 1655.82 174.301C1643.46 176.351 1634.19 180.462 1624.91 187.673C1617.72 196.947 1613.59 205.182 1605.36 225.778L1634.19 260.784C1646.55 275.193 1663.02 283.429 1680.51 284.441V289.603H1608.44V284.441L1587.85 259.746C1570.34 277.255 1542.56 292.702 1514.76 292.702C1470.48 292.702 1441.65 267.982 1441.65 234.014C1441.65 196.959 1476.66 173.264 1504.45 154.73C1504.45 154.73 1474.58 120.762 1474.58 89.8811C1474.58 54.8887 1501.35 28.1061 1538.42 28.1061C1571.37 28.1061 1597.11 51.789 1597.11 80.6207C1597.12 113.538 1559.03 127.96 1539.47 143.394ZM1988.34 0.286011L1991.43 89.8552H1986.29C1977.02 39.4028 1944.09 10.584 1901.86 10.584C1851.42 10.584 1816.41 69.2722 1816.41 147.519C1816.41 245.324 1855.53 285.478 1909.08 285.478C1964.66 285.478 1986.29 234.001 1991.44 196.946H1996.58V236.063C1987.33 252.548 1959.52 290.627 1900.85 290.627C1826.7 290.627 1769.05 229.877 1769.05 148.556C1769.05 74.4341 1833.92 6.47255 1900.85 6.47255C1939.96 6.47255 1950.25 22.9572 1965.69 22.9572C1977.02 22.9572 1982.17 15.746 1983.2 0.298973H1988.34V0.286011V0.286011ZM2259.11 248.411C2270.43 248.411 2279.71 257.684 2279.71 269.007C2279.71 280.329 2270.43 288.565 2259.11 288.565C2247.79 288.565 2238.51 280.329 2238.51 269.007C2238.51 257.684 2247.79 248.411 2259.11 248.411ZM2056.3 174.288C2056.3 243.262 2083.04 285.465 2125.27 285.465C2168.52 285.465 2195.26 246.348 2195.26 174.288C2195.26 108.389 2171.6 71.3214 2126.29 70.2967C2079.97 69.2721 2056.3 113.538 2056.3 174.288ZM2124.25 65.1478C2187.96 65.2775 2241.61 113.629 2241.61 178.387C2241.61 241.186 2191.17 289.59 2126.3 289.59C2062.46 289.59 2008.94 239.124 2008.94 178.387C2008.94 117.662 2061.45 65.1478 2124.25 65.1478ZM787.897 113.538L825.989 205.169H750.829L787.897 113.538ZM911.434 284.441C903.198 284.441 897.024 277.242 892.9 272.106C889.813 266.944 803.331 54.8628 803.331 54.8628L724.06 248.411C714.799 273.105 702.439 284.428 684.943 284.428V289.59H749.792V284.428C736.42 283.416 728.171 277.229 728.171 267.956C728.171 260.758 748.754 211.343 748.754 211.343H827.001C827.001 211.343 848.621 257.671 849.646 267.956C850.683 276.192 838.323 284.428 825.963 284.428V289.59H911.408V284.441H911.434V284.441ZM947.477 250.46C947.477 271.056 934.092 280.329 919.683 284.428V289.59H984.544V284.428C966.011 280.329 955.713 267.956 955.713 250.46V105.315L1107.06 293.714V112.526C1107.06 86.7814 1121.47 71.3343 1137.94 71.3343V66.1984H1064.84V70.3097C1085.44 76.4963 1099.85 88.8436 1099.85 112.526V223.729L974.233 66.1984H914.521V70.3097C940.253 71.3343 947.464 92.955 947.464 98.104V250.46H947.477V250.46ZM1146.17 71.3214C1155.34 71.3214 1157.54 71.3862 1164.71 84.7062C1164.71 84.7062 1233.68 194.884 1233.68 195.896V261.782C1233.68 276.192 1221.32 284.428 1202.8 285.465V289.59H1298.56V285.465C1281.05 284.428 1269.72 276.192 1269.72 261.782V184.573C1269.72 184.573 1313.98 105.302 1318.1 98.091C1328.39 81.6194 1342.8 71.3214 1360.3 69.2592V66.1724H1282.06L1283.1 69.2592C1307.79 69.2592 1313.98 92.942 1304.7 107.351L1264.55 181.474L1215.15 95.0042C1206.89 81.6194 1217.2 69.2592 1235.72 69.2592V66.1724H1146.15V71.3214H1146.17V71.3214Z" fill="black"/>
</svg>
